<svg width="47" height="47" viewBox="0 0 47 47" fill="none" xmlns="http://www.w3.org/2000/svg">
<path fill-rule="evenodd" clip-rule="evenodd" d="M23.1889 46.5235C35.8348 46.5235 46.0863 36.272 46.0863 23.6262C46.0863 10.9804 35.8348 0.728882 23.1889 0.728882C10.5431 0.728882 0.291626 10.9804 0.291626 23.6262C0.291626 36.272 10.5431 46.5235 23.1889 46.5235Z" fill="#FEDC5A" fill-opacity="0.1"/>
<path d="M20.8661 24.1792C20.2821 24.4712 19.7954 24.9048 19.4326 25.4446C19.229 25.7544 19.229 26.1437 19.4326 26.4534C19.7954 26.9932 20.2821 27.4269 20.8661 27.7189" stroke="#FEDC5A" stroke-width="1.32738" stroke-linecap="round" stroke-linejoin="round"/>
<path d="M26.3615 24.1792C26.9455 24.4712 27.4322 24.9048 27.795 25.4446C27.9986 25.7544 27.9986 26.1437 27.795 26.4534C27.4322 26.9932 26.9455 27.4269 26.3615 27.7189" stroke="#FEDC5A" stroke-width="1.32738" stroke-linecap="round" stroke-linejoin="round"/>
<path d="M20.8661 32.1436H26.1756C30.6002 32.1436 32.37 30.3738 32.37 25.9492V20.6396C32.37 16.215 30.6002 14.4452 26.1756 14.4452H20.8661C16.4415 14.4452 14.6716 16.215 14.6716 20.6396V25.9492C14.6716 30.3738 16.4415 32.1436 20.8661 32.1436Z" stroke="#FEDC5A" stroke-width="1.32738" stroke-linecap="round" stroke-linejoin="round"/>
<path d="M14.8751 19.7635L31.8833 19.7546" stroke="#FEDC5A" stroke-width="1.32738" stroke-linecap="round" stroke-linejoin="round"/>
</svg>
